{"title":"The Inbetweener Movie 2011 DVDRip XviD AC3-TRiNiTY","uid":6877485,"size":1531561007,"categoryP":"video","categoryS":"movies","magnet":"?xt=urn:btih:abda2c171fafb4fb56074dc23d38ccc487458d21&amp;dn=The+Inbetweener+Movie+2011+DVDRip+XviD+AC3-TRiNiTY&amp;tr=udp%3A%2F%2Ftracker.openbittorrent.com%3A80&amp;tr=udp%3A%2F%2Fopen.demonii.com%3A1337&amp;tr=udp%3A%2F%2Ftracker.coppersurfer.tk%3A6969&amp;tr=udp%3A%2F%2Fexodus.desync.com%3A6969","seeders":0,"leechers":2,"uploader":"DibyaTPB","files":6,"time":1323511582,"description":"EnCoDer:Allycat\n\n\n\nGeneral\nComplete name                    : The Inbetweeners Movie 2011 DVDRip XviD AC3-TRiNiTY.avi\nFormat                           : AVI\nFormat/Info                      : Audio Video Interleave\nFile size                        : 1.40 GiB\nDuration                         : 1h 32mn\nOverall bit rate                 : 2 157 Kbps\nWriting library                  : VirtualDub build 30091/release\n\nVideo\nID                               : 0\nFormat                           : MPEG-4 Visual\nFormat profile                   : Advanced Simple@L5\nFormat settings, BVOP            : 1\nFormat settings, QPel            : No\nFormat settings, GMC             : No warppoints\nFormat settings, Matrix          : Default (H.263)\nMuxing mode                      : Packed bitstream\nCodec ID                         : XVID\nCodec ID/Hint                    : XviD\nDuration                         : 1h 32mn\nBit rate                         : 1 700 Kbps\nWidth                            : 720 pixels\nHeight                           : 400 pixels\nDisplay aspect ratio             : 16:9\nFrame rate                       : 25.000 fps\nColor space                      : YUV\nChroma subsampling               : 4:2:0\nBit depth                        : 8 bits\nScan type                        : Progressive\nCompression mode                 : Lossy\nBits/(Pixel*Frame)               : 0.236\nStream size                      : 1.10 GiB (79%)\nWriting library                  : XviD 1.2.1 (UTC 2008-12-04)\n\nAudio\nID                               : 1\nFormat                           : AC-3\nFormat/Info                      : Audio Coding 3\nMode extension                   : CM (complete main)\nCodec ID                         : 2000\nDuration                         : 1h 32mn\nBit rate mode                    : Constant\nBit rate                         : 448 Kbps\nChannel(s)                       : 6 channels\nChannel positions                : Front: L C R, Side: L R, LFE\nSampling rate                    : 48.0 KHz\nBit depth                        : 16 bits\nCompression mode                 : Lossy\nStream size                      : 298 MiB (21%)\nAlignment                        : Aligned on interleaves\nInterleave, duration             : 40 ms (1.00 video frame)\nInterleave, preload duration     : 512 ms\n\nSOURCE:\nThe Inbetweeners Movie 2011 DVDRip XviD AC3-26K:THANKS.\n\nSAMPLE:YES.\n &lt;a href=&quot;\nhttp://www.imdb.com/title/tt1716772/&quot; rel=&quot;nofollow&quot; target=&quot;_NEW&quot;&gt;\nhttp://www.imdb.com/title/tt1716772/&lt;/a&gt;\n\nPLOT:\nFour socially troubled 18-year-olds from the south of England go on holiday to Malia.\n\nSCREENS:","torrent":{"xt":"urn:btih:abda2c171fafb4fb56074dc23d38ccc487458d21","amp;dn":"The+Inbetweener+Movie+2011+DVDRip+XviD+AC3-TRiNiTY","amp;tr":["udp%3A%2F%2Ftracker.openbittorrent.com%3A80","udp%3A%2F%2Fopen.demonii.com%3A1337","udp%3A%2F%2Ftracker.coppersurfer.tk%3A6969","udp%3A%2F%2Fexodus.desync.com%3A6969"],"infoHash":"abda2c171fafb4fb56074dc23d38ccc487458d21","infoHashBuffer":{"type":"Buffer","data":[171,218,44,23,31,175,180,251,86,7,77,194,61,56,204,196,135,69,141,33]},"announce":[],"urlList":[]}}